name analog
datacolumns 19
datarows 40
range 0.2665 0.28600000000000003
endheader
time	ground_force_vx	ground_force_vy	ground_force_vz	ground_force_px	ground_force_py	ground_force_pz	l_ground_force_vx	l_ground_force_vy	l_ground_force_vz	l_ground_force_px	l_ground_force_py	l_ground_force_pz	ground_torque_x	ground_torque_y	ground_torque_z	l_ground_torque_x	l_ground_torque_y	l_ground_torque_z
0.2665	-0.0	-0.0	-0.0	-0.0	-0.0	-0.0	-1.868624448776245	-13.601539611816406	-792.0335083007812	-0.0	-0.0	-0.0	-0.0	-0.0	-0.0	248568.75	-1472.80078125	-4662.0380859375
0.267	-0.0	-0.0	-0.0	-0.0	-0.0	-0.0	-1.5139687061309814	-13.376590728759766	-792.0899658203125	-0.0	-0.0	-0.0	-0.0	-0.0	-0.0	248064.546875	-1734.7177734375	-4714.33642578125
0.2675	-0.0	-0.0	-0.0	-0.0	-0.0	-0.0	-1.3851028680801392	-13.268335342407228	-791.1776123046875	-0.0	-0.0	-0.0	-0.0	-0.0	-0.0	248006.984375	-1410.58154296875	-4695.98779296875
0.268	-0.0	-0.0	-0.0	-0.0	-0.0	-0.0	-1.193692684173584	-12.908920288085938	-789.4869995117188	-0.0	-0.0	-0.0	-0.0	-0.0	-0.0	247732.375	-1530.0166015625	-4624.9541015625
0.2685	-0.0	-0.0	-0.0	-0.0	-0.0	-0.0	-0.948011577129364	-12.664055824279783	-788.4938354492188	-0.0	-0.0	-0.0	-0.0	-0.0	-0.0	247458.875	-1476.7706298828125	-4535.7001953125
0.269	-0.0	-0.0	-0.0	-0.0	-0.0	-0.0	-0.8391494750976562	-12.704591751098633	-787.7662353515625	-0.0	-0.0	-0.0	-0.0	-0.0	-0.0	247521.90625	-1734.5435791015625	-4423.765625
0.2695	-0.0	-0.0	-0.0	-0.0	-0.0	-0.0	0.0545771121978759	-12.066086769104004	-788.7335205078125	-0.0	-0.0	-0.0	-0.0	-0.0	-0.0	247299.46875	-1761.09375	-4347.6474609375
0.27	-0.0	-0.0	-0.0	-0.0	-0.0	-0.0	0.3207407593727112	-11.631388664245604	-788.3308715820312	-0.0	-0.0	-0.0	-0.0	-0.0	-0.0	247523.9375	-1759.8841552734375	-4178.49853515625
0.2705	-0.0	-0.0	-0.0	-0.0	-0.0	-0.0	0.0752268731594085	-10.992870330810549	-788.03515625	-0.0	-0.0	-0.0	-0.0	-0.0	-0.0	247625.65625	-1800.527099609375	-4258.46044921875
0.271	-0.0	-0.0	-0.0	-0.0	-0.0	-0.0	0.2114489823579788	-10.361454963684082	-788.518310546875	-0.0	-0.0	-0.0	-0.0	-0.0	-0.0	247921.21875	-1985.0234375	-4162.35400390625
0.2715	-0.0	-0.0	-0.0	-0.0	-0.0	-0.0	0.4642581939697265	-9.660918235778809	-787.5521850585938	-0.0	-0.0	-0.0	-0.0	-0.0	-0.0	248023.765625	-2159.351318359375	-4134.82470703125
0.272	-0.0	-0.0	-0.0	-0.0	-0.0	-0.0	0.5682294964790344	-9.089573860168455	-788.03515625	-0.0	-0.0	-0.0	-0.0	-0.0	-0.0	247967.203125	-2023.50927734375	-4095.5419921875
0.2725	-0.0	-0.0	-0.0	-0.0	-0.0	-0.0	0.3887714147567749	-9.164692878723145	-787.901611328125	-0.0	-0.0	-0.0	-0.0	-0.0	-0.0	248006.234375	-2072.812255859375	-4061.653076171875
0.273	-0.0	-0.0	-0.0	-0.0	-0.0	-0.0	0.0678015649318695	-9.219207763671877	-787.8194580078125	-0.0	-0.0	-0.0	-0.0	-0.0	-0.0	248005.359375	-2400.18359375	-4022.619140625
0.2735	-0.0	-0.0	-0.0	-0.0	-0.0	-0.0	0.3968115150928497	-9.076241493225098	-787.0383911132812	-0.0	-0.0	-0.0	-0.0	-0.0	-0.0	247924.9375	-2271.1103515625	-4105.3876953125
0.274	-0.0	-0.0	-0.0	-0.0	-0.0	-0.0	0.2112473845481872	-8.920490264892578	-786.6888427734375	-0.0	-0.0	-0.0	-0.0	-0.0	-0.0	247809.1875	-2536.404052734375	-4013.802978515625
0.2745	-0.0	-0.0	-0.0	-0.0	-0.0	-0.0	0.422439843416214	-9.227498054504396	-785.7241821289062	-0.0	-0.0	-0.0	-0.0	-0.0	-0.0	247683.96875	-2511.16162109375	-3991.145263671875
0.275	-0.0	-0.0	-0.0	-0.0	-0.0	-0.0	0.3674149513244629	-8.832168579101562	-785.0751953125	-0.0	-0.0	-0.0	-0.0	-0.0	-0.0	247372.5	-2680.6416015625	-4025.00244140625
0.2755	-0.0	-0.0	-0.0	-0.0	-0.0	-0.0	0.7434096336364746	-8.987641334533691	-785.5911865234375	-0.0	-0.0	-0.0	-0.0	-0.0	-0.0	246837.5625	-2806.422119140625	-3965.458740234375
0.276	-0.0	-0.0	-0.0	-0.0	-0.0	-0.0	0.7770780920982361	-8.865716934204102	-783.6641235351562	-0.0	-0.0	-0.0	-0.0	-0.0	-0.0	246788.5	-2907.396484375	-3917.3525390625
0.2765	-0.0	-0.0	-0.0	-0.0	-0.0	-0.0	1.3215322494506836	-9.106223106384276	-783.712890625	-0.0	-0.0	-0.0	-0.0	-0.0	-0.0	246594.625	-3240.26708984375	-3724.734375
0.277	-0.0	-0.0	-0.0	-0.0	-0.0	-0.0	1.838622450828552	-8.92331314086914	-782.97802734375	-0.0	-0.0	-0.0	-0.0	-0.0	-0.0	246436.015625	-3474.54052734375	-3522.8525390625
0.2775	-0.0	-0.0	-0.0	-0.0	-0.0	-0.0	2.306480407714844	-9.319214820861816	-784.0149536132812	-0.0	-0.0	-0.0	-0.0	-0.0	-0.0	245978.609375	-3956.041259765625	-3315.897705078125
0.278	-0.0	-0.0	-0.0	-0.0	-0.0	-0.0	2.562971353530884	-9.417011260986328	-782.580810546875	-0.0	-0.0	-0.0	-0.0	-0.0	-0.0	246041.984375	-4140.28271484375	-3122.515625
0.2785	-0.0	-0.0	-0.0	-0.0	-0.0	-0.0	2.893937349319458	-9.526948928833008	-782.8911743164062	-0.0	-0.0	-0.0	-0.0	-0.0	-0.0	245974.953125	-4236.72900390625	-3107.83837890625
0.279	-0.0	-0.0	-0.0	-0.0	-0.0	-0.0	3.48146915435791	-9.008811950683594	-781.7898559570312	-0.0	-0.0	-0.0	-0.0	-0.0	-0.0	245663.890625	-4357.08203125	-2925.3564453125
0.2795	-0.0	-0.0	-0.0	-0.0	-0.0	-0.0	3.736006498336792	-8.985613822937012	-780.0905151367188	-0.0	-0.0	-0.0	-0.0	-0.0	-0.0	245183.125	-4409.26904296875	-2928.57373046875
0.28	-0.0	-0.0	-0.0	-0.0	-0.0	-0.0	3.781147718429565	-8.61076831817627	-779.7009887695312	-0.0	-0.0	-0.0	-0.0	-0.0	-0.0	244939.171875	-4268.56494140625	-2750.937744140625
0.2805	-0.0	-0.0	-0.0	-0.0	-0.0	-0.0	3.91469955444336	-7.982183933258057	-777.2564086914062	-0.0	-0.0	-0.0	-0.0	-0.0	-0.0	244358.25	-4312.45703125	-2887.816650390625
0.281	-0.0	-0.0	-0.0	-0.0	-0.0	-0.0	3.814563751220703	-8.169405937194824	-776.208740234375	-0.0	-0.0	-0.0	-0.0	-0.0	-0.0	244045.65625	-4310.84716796875	-2721.096435546875
0.28150000000000003	-0.0	-0.0	-0.0	-0.0	-0.0	-0.0	3.759170055389404	-8.059253692626953	-774.592041015625	-0.0	-0.0	-0.0	-0.0	-0.0	-0.0	243444.671875	-4321.814453125	-2839.604248046875
0.28200000000000003	-0.0	-0.0	-0.0	-0.0	-0.0	-0.0	3.736876964569092	-8.247050285339355	-772.0614013671875	-0.0	-0.0	-0.0	-0.0	-0.0	-0.0	243065.265625	-4149.2900390625	-2765.60009765625
0.28250000000000003	-0.0	-0.0	-0.0	-0.0	-0.0	-0.0	3.4486753940582275	-8.357454299926758	-770.88330078125	-0.0	-0.0	-0.0	-0.0	-0.0	-0.0	242501.140625	-4063.711669921875	-2676.820556640625
0.28300000000000003	-0.0	-0.0	-0.0	-0.0	-0.0	-0.0	3.093944787979126	-7.871514797210693	-769.5301513671875	-0.0	-0.0	-0.0	-0.0	-0.0	-0.0	242258.671875	-3843.637939453125	-2840.095947265625
0.28350000000000003	-0.0	-0.0	-0.0	-0.0	-0.0	-0.0	2.7493183612823486	-7.948951721191406	-769.6181640625	-0.0	-0.0	-0.0	-0.0	-0.0	-0.0	241974.203125	-3651.71435546875	-2884.7119140625
0.28400000000000003	-0.0	-0.0	-0.0	-0.0	-0.0	-0.0	2.4946398735046387	-7.30838680267334	-767.3930053710938	-0.0	-0.0	-0.0	-0.0	-0.0	-0.0	241615.765625	-3470.071533203125	-2873.590576171875
0.28450000000000003	-0.0	-0.0	-0.0	-0.0	-0.0	-0.0	2.42953896522522	-7.197602272033691	-767.5237426757812	-0.0	-0.0	-0.0	-0.0	-0.0	-0.0	241749.78125	-3473.61376953125	-2918.24853515625
0.28500000000000003	-0.0	-0.0	-0.0	-0.0	-0.0	-0.0	2.2282826900482178	-6.932487964630127	-767.6067504882812	-0.0	-0.0	-0.0	-0.0	-0.0	-0.0	242031.71875	-3266.802490234375	-2836.864013671875
0.28550000000000003	-0.0	-0.0	-0.0	-0.0	-0.0	-0.0	1.984678149223328	-6.613760471343994	-768.482666015625	-0.0	-0.0	-0.0	-0.0	-0.0	-0.0	242295.546875	-3215.07275390625	-2933.52685546875
0.28600000000000003	-0.0	-0.0	-0.0	-0.0	-0.0	-0.0	1.8299168348312376	-6.326296329498291	-768.263427734375	-0.0	-0.0	-0.0	-0.0	-0.0	-0.0	242658.6875	-3079.01123046875	-2869.442138671875
